<?xml version="1.0" encoding="utf-8"?>
<!-- Generator: Adobe Illustrator 26.4.1, SVG Export Plug-In . SVG Version: 6.00 Build 0)  -->
<svg version="1.1" id="Layer_1" xmlns="http://www.w3.org/2000/svg" xmlns:xlink="http://www.w3.org/1999/xlink" x="0px" y="0px"
	 viewBox="0 0 1413.37 732.37" style="enable-background:new 0 0 1413.37 732.37;" xml:space="preserve">
<style type="text/css">
	.st0{filter:url(#Adobe_OpacityMaskFilter);}
	.st1{fill-rule:evenodd;clip-rule:evenodd;fill:#FFFFFF;}
	.st2{mask:url(#mask-2_24_);fill-rule:evenodd;clip-rule:evenodd;fill:#C4D82E;}
	.st3{filter:url(#Adobe_OpacityMaskFilter_00000003102255132797546930000010399303913599018416_);}
	.st4{mask:url(#mask-2_23_);fill-rule:evenodd;clip-rule:evenodd;fill:#C4D82E;}
	.st5{filter:url(#Adobe_OpacityMaskFilter_00000078738597797622800240000015599707818514934665_);}
	.st6{mask:url(#mask-2_22_);fill-rule:evenodd;clip-rule:evenodd;fill:#173E35;}
	.st7{filter:url(#Adobe_OpacityMaskFilter_00000160170049214322767540000011875591138288128666_);}
	.st8{mask:url(#mask-2_21_);fill-rule:evenodd;clip-rule:evenodd;fill:#799B3E;}
	.st9{filter:url(#Adobe_OpacityMaskFilter_00000109743681702756178730000018395952416456449440_);}
	.st10{mask:url(#mask-2_20_);fill-rule:evenodd;clip-rule:evenodd;fill:#799B3E;}
	.st11{filter:url(#Adobe_OpacityMaskFilter_00000117653561471349244430000006765653090960645297_);}
	.st12{mask:url(#mask-2_19_);fill-rule:evenodd;clip-rule:evenodd;fill:#173E35;}
	.st13{fill-rule:evenodd;clip-rule:evenodd;fill:#173E35;}
	.st14{fill-rule:evenodd;clip-rule:evenodd;fill:#799B3E;}
	.st15{fill:#173E35;}
	.st16{fill:#799B3E;}
</style>
	<g>
	<g>
		<g id="Kanopi_K_Dark_1_" transform="translate(6.000000, 4.000000)">
			<g id="Clip-2_1_">
			</g>
			<defs>
				<filter id="Adobe_OpacityMaskFilter" filterUnits="userSpaceOnUse" x="201.06" y="413.24" width="75.18" height="112.41">
					<feColorMatrix  type="matrix" values="1 0 0 0 0  0 1 0 0 0  0 0 1 0 0  0 0 0 1 0"/>
				</filter>
			</defs>
			<mask maskUnits="userSpaceOnUse" x="201.06" y="413.24" width="75.18" height="112.41" id="mask-2_24_">
				<g class="st0">
					<polygon id="path-1_24_" class="st1" points="201.06,164.03 418,164.03 418,529.03 201.06,529.03 					"/>
				</g>
			</mask>
			<path id="Fill-1_1_" class="st2" d="M201.06,525.65c67.18-29.28,75.18-62.49,75.18-62.49v-49.93l-75.18,47.51V525.65"/>
			<defs>

					<filter id="Adobe_OpacityMaskFilter_00000018218096815002884670000004285204422564335277_" filterUnits="userSpaceOnUse" x="291.54" y="228.81" width="126.46" height="140">
					<feColorMatrix  type="matrix" values="1 0 0 0 0  0 1 0 0 0  0 0 1 0 0  0 0 0 1 0"/>
				</filter>
			</defs>
			<mask maskUnits="userSpaceOnUse" x="291.54" y="228.81" width="126.46" height="140" id="mask-2_23_">
				<g style="filter:url(#Adobe_OpacityMaskFilter_00000018218096815002884670000004285204422564335277_);">
					<polygon id="path-1_23_" class="st1" points="201.06,164.03 418,164.03 418,529.03 201.06,529.03 					"/>
				</g>
			</mask>
			<path id="Fill-3_1_" class="st4" d="M386.01,257.18l-68.82,43.25c0,0-22.45,11.66-25.65,34.28l53.25,34.1l58.12-37.38
				c0,0,15.09-9.51,15.09-31.24v-71.38C418.01,228.81,407.13,242.09,386.01,257.18"/>
			<defs>

					<filter id="Adobe_OpacityMaskFilter_00000101806428985255876790000012710801470952619447_" filterUnits="userSpaceOnUse" x="291.54" y="368.86" width="126.46" height="140">
					<feColorMatrix  type="matrix" values="1 0 0 0 0  0 1 0 0 0  0 0 1 0 0  0 0 0 1 0"/>
				</filter>
			</defs>
			<mask maskUnits="userSpaceOnUse" x="291.54" y="368.86" width="126.46" height="140" id="mask-2_22_">
				<g style="filter:url(#Adobe_OpacityMaskFilter_00000101806428985255876790000012710801470952619447_);">
					<polygon id="path-1_22_" class="st1" points="201.06,164.03 418,164.03 418,529.03 201.06,529.03 					"/>
				</g>
			</mask>
			<path id="Fill-4_1_" class="st6" d="M386.01,480.48l-68.82-43.24c0,0-22.45-11.67-25.65-34.28l53.25-34.1l58.12,37.37
				c0,0,15.09,9.51,15.09,31.24v71.38C418.01,508.86,407.13,495.58,386.01,480.48"/>
			<defs>

					<filter id="Adobe_OpacityMaskFilter_00000049943306341393019930000010283950799271975324_" filterUnits="userSpaceOnUse" x="291.09" y="334.61" width="53.77" height="68.35">
					<feColorMatrix  type="matrix" values="1 0 0 0 0  0 1 0 0 0  0 0 1 0 0  0 0 0 1 0"/>
				</filter>
			</defs>
			<mask maskUnits="userSpaceOnUse" x="291.09" y="334.61" width="53.77" height="68.35" id="mask-2_21_">
				<g style="filter:url(#Adobe_OpacityMaskFilter_00000049943306341393019930000010283950799271975324_);">
					<polygon id="path-1_21_" class="st1" points="201.06,164.03 418,164.03 418,529.03 201.06,529.03 					"/>
				</g>
			</mask>
			<path id="Fill-5_1_" class="st8" d="M344.86,368.79l-53.37-34.18c-0.24,1.73-0.4,3.51-0.4,5.36v57.62c0,1.86,0.16,3.64,0.4,5.37
				L344.86,368.79"/>
			<defs>

					<filter id="Adobe_OpacityMaskFilter_00000052820417192701726170000007553228094854836147_" filterUnits="userSpaceOnUse" x="201.06" y="278.25" width="75.18" height="182.5">
					<feColorMatrix  type="matrix" values="1 0 0 0 0  0 1 0 0 0  0 0 1 0 0  0 0 0 1 0"/>
				</filter>
			</defs>
			<mask maskUnits="userSpaceOnUse" x="201.06" y="278.25" width="75.18" height="182.5" id="mask-2_20_">
				<g style="filter:url(#Adobe_OpacityMaskFilter_00000052820417192701726170000007553228094854836147_);">
					<polygon id="path-1_20_" class="st1" points="201.06,164.03 418,164.03 418,529.03 201.06,529.03 					"/>
				</g>
			</mask>
			<polyline id="Fill-6_1_" class="st10" points="201.06,460.75 276.25,413.24 276.25,326.59 201.06,278.25 201.06,460.75 			"/>
			<defs>

					<filter id="Adobe_OpacityMaskFilter_00000170975203290914341670000003865950313017754018_" filterUnits="userSpaceOnUse" x="201.06" y="167.62" width="75.18" height="158.97">
					<feColorMatrix  type="matrix" values="1 0 0 0 0  0 1 0 0 0  0 0 1 0 0  0 0 0 1 0"/>
				</filter>
			</defs>
			<mask maskUnits="userSpaceOnUse" x="201.06" y="167.62" width="75.18" height="158.97" id="mask-2_19_">
				<g style="filter:url(#Adobe_OpacityMaskFilter_00000170975203290914341670000003865950313017754018_);">
					<polygon id="path-1_19_" class="st1" points="201.06,164.03 418,164.03 418,529.03 201.06,529.03 					"/>
				</g>
			</mask>
			<path id="Fill-7_1_" class="st12" d="M201.06,167.62v110.63l75.18,48.34v-89.01C276.25,237.58,276.25,188.2,201.06,167.62"/>
		</g>
	</g>
</g>
	<path class="st13" d="M712.96,296.79c-10.59-9.69-24.48-15.01-40.03-15.01c-34.77,0-62.01,27.43-62.01,62.44
	s27.24,62.44,62.01,62.44c15.55,0,29.44-5.32,40.03-15.01v12.64h23.49V284.15h-23.49V296.79z M712.96,344.22
	c0,22.2-17.2,39.6-39.17,39.6c-22.08,0-39.38-17.39-39.38-39.6s17.3-39.6,39.38-39.6C695.76,304.63,712.96,322.02,712.96,344.22z"/>
	<path class="st13" d="M819.12,281.78c-12.89,0-23.79,3.75-32.28,10.98v-8.62h-23.28V404.3h23.28v-63.09
	c0-23.25,11.45-36.58,31.42-36.58c16.13,0,25.39,9.65,25.39,26.47v73.21h23.49v-73.21C867.14,301.6,847.84,281.78,819.12,281.78z"/>
	<path class="st13" d="M949.14,281.78c-35.26,0-62.87,27.43-62.87,62.44s27.62,62.44,62.87,62.44c35.13,0,62.66-27.43,62.66-62.44
	S984.27,281.78,949.14,281.78z M949.14,304.63c21.96,0,39.17,17.39,39.17,39.6s-17.2,39.6-39.17,39.6
	c-22.08,0-39.38-17.39-39.38-39.6S927.05,304.63,949.14,304.63z"/>
	<path class="st13" d="M1092.86,281.78c-15.42,0-29.46,5.52-40.03,15.31v-12.94h-23.28v176.27l23.28-14.71v-54.35
	c10.57,9.79,24.61,15.31,40.03,15.31c34.77,0,62.01-27.43,62.01-62.44S1127.63,281.78,1092.86,281.78z M1131.6,344.22
	c0,22.2-17.3,39.6-39.38,39.6s-39.38-17.39-39.38-39.6s17.3-39.6,39.38-39.6S1131.6,322.02,1131.6,344.22z"/>
	<polygon class="st13" points="1173.41,404.3 1196.68,404.3 1196.68,289.52 1173.41,304.24 "/>
	<path class="st14" d="M1212.53,227.94l-28.83,18.11c0,0-9.39,4.88-10.74,14.34l-0.02-0.02c-0.1,0.73-0.17,1.47-0.17,2.25v29.88
	c0,0.78,0.07,1.52,0.17,2.25l22.35-14.31l-0.01-0.01l24.32-15.64c0,0,6.32-3.98,6.32-13.09v-35.65
	C1225.93,216.06,1221.38,221.62,1212.53,227.94z"/>
	<path class="st15" d="M551.21,342.18l62.72-58.3h-32.77l-57.56,52.58v-78.92c0-12.92-10.47-23.39-23.39-23.39h0v170.5h23.39
	l-0.94-57.83l59.85,57.83h32.98L551.21,342.18z"/>
	<g>
	<g>
		<path class="st16" d="M499.01,501.41l4.26-8.98c5.99,5.41,16.24,9.33,26.61,9.33c13.94,0,19.93-5.41,19.93-12.44
			c0-19.7-48.84-7.26-48.84-37.21c0-12.44,9.68-23.04,30.87-23.04c9.45,0,19.24,2.53,25.92,7.14l-3.8,9.22
			c-7.03-4.49-14.97-6.57-22.12-6.57c-13.71,0-19.58,5.76-19.58,12.79c0,19.7,48.84,7.37,48.84,36.98
			c0,12.33-9.91,22.92-31.22,22.92C517.56,511.54,505.47,507.4,499.01,501.41z"/>
		<path class="st16" d="M624.85,507.05c-3.34,2.88-8.41,4.26-13.36,4.26c-12.33,0-19.35-6.8-19.35-19.12v-33.52h-10.37v-9.1h10.37
			v-13.36h11.06v13.36h17.51v9.1h-17.51v33.06c0,6.57,3.46,10.25,9.56,10.25c3.23,0,6.33-1.04,8.64-2.88L624.85,507.05z"/>
		<path class="st16" d="M708.21,449.57v61.05h-10.48v-9.22c-4.49,6.34-12.1,9.91-20.74,9.91c-15.78,0-26.26-8.64-26.26-26.61v-35.13
			h11.06v33.87c0,11.98,5.99,17.97,16.47,17.97c11.52,0,18.89-7.14,18.89-20.27v-31.56H708.21z"/>
		<path class="st16" d="M796.13,424.11v86.52h-10.6v-9.68c-4.95,6.91-12.79,10.37-21.77,10.37c-17.85,0-30.87-12.56-30.87-31.22
			c0-18.66,13.02-31.1,30.87-31.1c8.64,0,16.24,3.23,21.31,9.79v-27.74L796.13,424.11z M785.18,480.1c0-13.02-8.87-21.43-20.5-21.43
			c-11.75,0-20.62,8.41-20.62,21.43c0,13.02,8.87,21.54,20.62,21.54C776.31,501.64,785.18,493.11,785.18,480.1z"/>
		<path class="st16" d="M828.97,430.68c0-4.03,3.23-7.26,7.49-7.26c4.26,0,7.49,3.11,7.49,7.03c0,4.15-3.11,7.37-7.49,7.37
			C832.2,437.82,828.97,434.71,828.97,430.68z M830.93,449.57h11.06v61.05h-11.06V449.57z"/>
		<path class="st16" d="M868.86,480.1c0-18.2,13.48-31.1,31.8-31.1c18.32,0,31.68,12.9,31.68,31.1c0,18.2-13.36,31.22-31.68,31.22
			C882.34,511.31,868.86,498.3,868.86,480.1z M921.16,480.1c0-13.02-8.75-21.43-20.5-21.43c-11.75,0-20.62,8.41-20.62,21.43
			c0,13.02,8.87,21.54,20.62,21.54C912.41,501.64,921.16,493.11,921.16,480.1z"/>
		<path class="st16" d="M953.78,504.17l4.61-8.75c5.18,3.69,13.48,6.34,21.43,6.34c10.25,0,14.52-3.11,14.52-8.3
			c0-13.71-38.59-1.84-38.59-26.15c0-10.94,9.79-18.32,25.46-18.32c7.95,0,16.93,2.07,22.23,5.53l-4.72,8.75
			c-5.53-3.57-11.63-4.84-17.62-4.84c-9.68,0-14.4,3.57-14.4,8.41c0,14.4,38.71,2.65,38.71,26.38c0,11.06-10.14,18.09-26.38,18.09
			C968.87,511.31,958.85,508.2,953.78,504.17z"/>
	</g>
</g>
	<g>
	<path class="st15" d="M1247.46,236.57h-3.25v-17.11h-5.85v-2.79h14.96v2.79h-5.85V236.57z"/>
		<path class="st15" d="M1264.96,236.57l-5.77-16.62h-0.11c0.15,2.47,0.23,4.78,0.23,6.94v9.68h-2.95v-19.9h4.59l5.52,15.83h0.08
		l5.69-15.83h4.6v19.9h-3.13v-9.84c0-0.99,0.02-2.28,0.07-3.86s0.09-2.55,0.13-2.89h-0.11l-5.97,16.59H1264.96z"/>
</g>
</svg>
